<?xml version="1.0" standalone="no"?>
<!DOCTYPE svg PUBLIC "-//W3C//DTD SVG 20010904//EN"
 "http://www.w3.org/TR/2001/REC-SVG-20010904/DTD/svg10.dtd">
<svg version="1.0" xmlns="http://www.w3.org/2000/svg"
 width="270.000000pt" height="270.000000pt" viewBox="0 0 270.000000 270.000000"
 preserveAspectRatio="xMidYMid meet">
<metadata>
Created by potrace 1.11, written by Peter Selinger 2001-2013
</metadata>
<g transform="translate(0.000000,270.000000) scale(0.100000,-0.100000)"
fill="#000000" stroke="none">
<path d="M317 2203 c-4 -3 -7 -246 -7 -540 l0 -533 160 0 160 0 0 540 0 540
-153 0 c-85 0 -157 -3 -160 -7z"/>
<path d="M1376 2195 c-132 -34 -242 -121 -294 -233 -24 -50 -27 -70 -27 -157
0 -93 2 -105 32 -165 18 -36 57 -96 88 -134 30 -38 55 -72 54 -75 0 -3 -30
-28 -66 -56 -82 -63 -147 -141 -187 -225 -25 -54 -31 -80 -34 -158 -7 -160 40
-277 157 -385 194 -181 557 -194 823 -30 l72 44 70 -70 71 -71 175 1 c266 2
258 -13 90 164 -79 83 -156 164 -171 180 l-28 30 30 63 c67 138 109 309 109
438 l0 64 -129 0 -128 0 -6 -87 c-7 -90 -25 -171 -53 -239 l-17 -39 -163 170
-164 170 27 19 c16 11 65 56 111 102 103 103 143 180 150 289 11 174 -86 314
-261 375 -82 28 -248 36 -331 15z m231 -245 c18 -10 39 -31 49 -45 21 -32 21
-112 1 -151 -16 -32 -94 -109 -141 -139 l-29 -19 -55 59 c-60 67 -92 122 -92
159 0 57 40 118 95 142 46 20 134 17 172 -6z m51 -968 c83 -89 152 -165 152
-171 0 -5 -34 -27 -76 -47 -66 -33 -87 -38 -164 -42 -100 -5 -164 11 -228 58
-84 60 -117 193 -71 287 11 23 51 70 87 104 l67 61 40 -45 c22 -24 109 -117
193 -205z"/>
<path d="M310 665 l0 -185 163 2 162 3 0 180 0 180 -162 3 -163 2 0 -185z"/>
</g>
</svg>
